<svg xmlns="http://www.w3.org/2000/svg" viewBox="0 0 200 200" enable-background="new 0 0 200 200"><style type="text/css">.st0{fill:#636363;}</style><title>Twitter</title><path id="Twitter" class="st0" d="M100 0C44.8 0 0 44.8 0 100s44.8 100 100 100 100-44.8 100-100S155.2 0 100 0zm29.7 46.5c4.8.9 10.8 3.6 13.4 6.2l2.1 2 4.1-1.1c2.3-.6 5.9-1.8 7.9-2.7 2.1-.9 4-1.6 4.1-1.4.7.7-3.5 6.6-7.1 10l-3.9 3.6 3.4-.5c1.9-.3 5.3-1.1 7.3-1.8 2.3-.8 3.8-1 3.8-.6s-2.7 3.4-6 6.7l-5.9 5.9-.5 6.8c-1.5 20.9-9 38-23.1 52.3-11 11.2-23.7 18-38.9 20.9-6.9 1.3-19.4 1.7-25.3 1-7.2-1-16.2-3.7-23.7-7.2l-6.6-3.2 7-.5c8.3-.5 14.1-1.9 20.7-5 4.9-2.3 11.4-6.3 10.9-6.8-.2-.2-2.1-.7-4.3-1.1-7.9-1.4-15.2-6.7-18.9-13.8l-1.8-3.4 5.4-.4c5.5-.3 7.4-1 5.1-1.7-7.1-2.1-14.2-8-17.4-14.4-1.3-2.6-3.2-9.5-3.2-11.6 0-.1.7.2 1.4.6 1.5.8 10.3 2.7 10.6 2.4.1-.1-1.5-2-3.6-4-2-2.1-4.5-5.6-5.6-7.7-1.7-3.6-1.9-4.6-1.9-11 0-5.5.3-7.9 1.3-10.5l1.3-3.3 2.7 3.1c12.4 14 30.6 23.1 50.4 25.3l3.8.4-.2-5.3c-.3-6.5 1-11.2 4.3-16.2 5-7.6 14.2-12.4 22.9-12.2 1.6-.3 2.8-.1 4 .2z"/></svg>