<svg xmlns="http://www.w3.org/2000/svg" viewBox="0 0 200 200" enable-background="new 0 0 200 200"><style type="text/css">.st0{fill:#636363;} .st1{fill:#FFFFFF;}</style><title>Pinterest</title><path id="Pinterest" class="st0" d="M100 0C44.8 0 0 44.8 0 100s44.8 100 100 100 100-44.8 100-100S155.2 0 100 0z"/><path class="st1" d="M105.5 25.3c-41.3 0-62.2 29.6-62.2 54.4 0 15 5.7 28.3 17.8 33.2 2 .8 3.8 0 4.4-2.2.4-1.5 1.4-5.4 1.8-7 .6-2.2.4-2.9-1.3-4.8-3.5-4.1-5.7-9.5-5.7-17.1 0-22 16.5-41.7 42.8-41.7 23.4 0 36.2 14.3 36.2 33.3 0 25.1-11.1 46.3-27.6 46.3-9.1 0-15.9-7.5-13.7-16.8 2.6-11 7.7-22.9 7.7-30.9 0-7-3.8-13-11.7-13-9.3 0-16.8 9.6-16.8 22.5 0 8.2 2.8 13.8 2.8 13.8s-9.5 40.3-11.2 47.4c-3.3 14.1-.5 31.3-.3 33.1.1 1 1.5 1.3 2.1.5.9-1.1 11.9-14.8 15.7-28.5 1.1-3.9 6.1-23.9 6.1-23.9 3 5.8 11.9 10.8 21.3 10.8 28 0 46.9-25.5 46.9-59.6 0-25.8-21.8-49.8-55.1-49.8z"/></svg>