<svg xmlns="http://www.w3.org/2000/svg" viewBox="0 0 200 200" enable-background="new 0 0 200 200"><style type="text/css">.st0{fill:#636363;}</style><title>Instagram</title><path id="Instagram" class="st0" d="M100 0C44.8 0 0 44.8 0 100s44.8 100 100 100 100-44.8 100-100S155.2 0 100 0zm50 165H50c-8.3 0-15-6.7-15-15V50c0-8.3 6.7-15 15-15h100c8.3 0 15 6.7 15 15v100c0 8.3-6.7 15-15 15zm5-77h-12.6c.9 3.6 1.5 7.3 1.5 11.2 0 24.7-19.9 44.7-44.4 44.7s-44.4-20-44.4-44.7c0-3.9.5-7.6 1.5-11.2H44v61.4c0 3.1 2.5 5.6 5.6 5.6h99.9c3.1 0 5.6-2.5 5.6-5.6V88zm1-39c0-2.8-2.2-5-5-5h-15c-2.8 0-5 2.2-5 5v15c0 2.8 2.2 5 5 5h15c2.8 0 5-2.2 5-5V49zm-55.5 16C80.9 65 65 80.9 65 100.5S80.9 136 100.5 136s35.5-15.9 35.5-35.5S120.1 65 100.5 65z"/></svg>