<svg xmlns="http://www.w3.org/2000/svg" viewBox="0 0 200 200" enable-background="new 0 0 200 200"><style type="text/css">.st0{fill:#636363;}</style><title>GooglePlus</title><path id="Google_x2B_" class="st0" d="M100 0C63.8 0 32 19.3 14.5 48.1c5.5-3.9 11.2-6.5 17.1-7.8 7.2-1.5 13.7-2.2 19.9-2.2h46.2l-14.4 8.1H69.5c1.3 1 2.8 2.5 4.6 4.2 1.8 1.6 3.6 3.7 5.2 6.2 1.6 2.4 3.1 5.2 4.2 8.5 1.2 3.3 1.8 7.1 1.8 11.2 0 4.2-.5 7.9-1.5 11-1 3.1-2.6 6-4.4 8.5-1.8 2.4-3.8 4.7-6 6.8-2.2 1.9-4.6 3.8-7 5.6-1.5 1.5-2.9 3-4.2 4.6s-2 3.7-2 6.2.7 4.6 2 6.1c1.3 1.3 2.7 2.6 3.9 3.6l8 6.2c2.4 2.1 4.8 4.2 7 6.2 2.4 2.1 4.4 4.4 6 6.8 1.8 2.4 3.3 5 4.4 8 1 3 1.5 6.5 1.5 10.4 0 5.2-1.2 10.4-3.8 15.5-2.5 5.1-6.3 9.5-11.2 13.4-.7.5-1.4 1.1-2.1 1.6 7.7 1.9 15.8 2.9 24.1 2.9 55.2 0 100-44.8 100-100 0-6.5-.6-12.8-1.8-19h-37v42.6h-13.4V81h-42.6V67.5h42.6V25.6h13.4v41.9h33.2C181 28.2 143.8 0 100 0zM37.4 45.5c-3 0-5.9.7-8.8 2-2.8 1.3-5.1 3.1-6.9 5.4-1.9 2.4-3.4 5-4.1 7.9-.6 2.8-.9 5.8-.9 8.8 0 3.7.6 8 1.6 12.6 1.2 4.6 2.9 9 5.1 13 2.4 4 5.3 7.4 8.8 10.2 3.6 2.7 7.7 4 12.5 4 2.8 0 5.7-.6 8.4-1.8 2.8-1.2 5.1-2.7 6.9-4.5 2.5-2.5 4.2-5.4 4.8-8.5.6-3.1.9-5.8.9-7.9 0-4-.6-8.5-1.8-13.2-1.2-4.8-3-9.2-5.4-13.4-2.4-4.2-5.4-7.7-9-10.4-3.4-2.8-7.5-4.2-12.1-4.2zM.1 94.9C0 96.6 0 98.3 0 100c0 16.5 4.1 31.9 11.1 45.6 1-.4 2-.9 3-1.2 4-1.2 8-2.1 11.9-2.9s7.6-1.3 11-1.6 6.3-.5 8.9-.6c-1.6-2.1-3.1-4.3-4.6-6.5-1.3-2.4-2-5.3-2-8.8 0-1.9.2-3.6.6-4.8.4-1.3.9-2.7 1.5-4l-3.5.5h-3.6c-6 0-11.2-1.1-15.9-3-4.6-2.1-8.6-4.7-11.8-8-2.8-2.9-4.9-6.2-6.5-9.8zm45.1 50.6c-1.6.1-3.6.4-5.9.5-2.2.3-4.6.7-7.1 1.1-2.5.6-5 1.3-7.4 2-1.2.4-3 1.1-5.2 2-1.3.7-2.7 1.5-4 2.5 12 18.8 30 33.3 51.4 40.8.9-.6 1.7-1.1 2.5-1.8 5.7-4.5 8.5-10.2 8.5-17.2 0-2.8-.6-5.5-1.6-7.9-.9-2.2-2.3-4.5-4.2-6.8s-4.5-4.5-7.6-6.9c-3.1-2.4-6.8-5.1-11-8.1-.9-.1-1.6-.2-2.4-.2h-6z"/></svg>