<svg xmlns="http://www.w3.org/2000/svg" viewBox="0 0 200 200" enable-background="new 0 0 200 200"><style type="text/css">.st0{fill:#666666;}</style><title>Tumblr</title><path id="Tumblr" class="st0" d="M100 0C44.8 0 0 44.8 0 100s44.8 100 100 100 100-44.8 100-100S155.2 0 100 0zM83.7 23.8l10.7.2 10.7.2.2 19.3.2 19.3H141V86l-17.8.3c-9.8.2-17.9.5-18 .6s0 12.6.2 27.7c.4 30.6.3 30 5.5 33.5 4 2.8 6.2 3.3 13 3.3 7 0 12.5-1.4 18.4-4.7 1.7-.9 3.2-1.5 3.4-1.3s.5 5.4.6 11.5l.2 11.1-3 1.3c-6.4 2.7-12.8 4.8-17.7 5.6-6.6 1.2-23 1.1-28.6-.1-9.8-2.1-20.4-9.3-24.3-16.5-1-1.8-2.1-5.2-2.5-7.4-.4-2.3-1-17.3-1.2-34.1l-.4-30H52.6V65.2l6-2.9c7.2-3.4 12.6-8.1 16.9-14.5 3.3-5 6.9-14.5 7.6-20.5l.6-3.5z"/></svg>